<?xml version="1.0" encoding="UTF-8" standalone="no"?>
<!-- Created with Inkscape (http://www.inkscape.org/) -->
<svg
   xmlns:svg="http://www.w3.org/2000/svg"
   xmlns="http://www.w3.org/2000/svg"
   xmlns:xlink="http://www.w3.org/1999/xlink"
   version="1.0"
   width="527.14288"
   height="510"
   id="svg2">
  <defs
     id="defs4">
    <linearGradient
       id="linearGradient4105">
      <stop
         style="stop-color:#205c32;stop-opacity:1"
         offset="0"
         id="stop4107" />
      <stop
         style="stop-color:#3fb662;stop-opacity:1"
         offset="1"
         id="stop4109" />
    </linearGradient>
    <linearGradient
       x1="286.27606"
       y1="396.61816"
       x2="228.9304"
       y2="473.20413"
       id="linearGradient10232"
       xlink:href="#linearGradient4105"
       gradientUnits="userSpaceOnUse"
       gradientTransform="translate(89.464285,-53.92352)" />
  </defs>
  <g
     transform="translate(-86.428574,-97.362183)"
     id="layer1">
    <g
       transform="translate(-0.7142792,-10.714294)"
       id="g5116">
      <path
         d="M 398.42786 383.07648 A 47.713566 47.713566 0 1 1  303.00073,383.07648 A 47.713566 47.713566 0 1 1  398.42786 383.07648 z"
         transform="translate(-2.321429,162)"
         style="opacity:1;fill:url(#linearGradient10232);fill-opacity:1;fill-rule:evenodd;stroke:#000000;stroke-width:10;stroke-miterlimit:4;stroke-dasharray:none;stroke-opacity:1"
         id="path3134" />
      <use
         transform="translate(200,-360)"
         id="use4123"
         x="0"
         y="0"
         width="744.09448"
         height="1052.3622"
         xlink:href="#path3134" />
      <use
         transform="translate(200,0)"
         id="use4127"
         x="0"
         y="0"
         width="744.09448"
         height="1052.3622"
         xlink:href="#use4125" />
      <use
         transform="translate(-100,180)"
         id="use4131"
         x="0"
         y="0"
         width="744.09448"
         height="1052.3622"
         xlink:href="#use4127" />
      <use
         transform="translate(-400,0)"
         id="use4125"
         x="0"
         y="0"
         width="744.09448"
         height="1052.3622"
         xlink:href="#use4123" />
      <use
         transform="translate(300,180)"
         id="use4129"
         x="0"
         y="0"
         width="744.09448"
         height="1052.3622"
         xlink:href="#use4125" />
      <path
         d="M 78.791899,119.07097 L 131.57462,216.75239"
         transform="translate(87.142853,108.07648)"
         style="fill:none;fill-rule:evenodd;stroke:#000000;stroke-width:10;stroke-linecap:butt;stroke-linejoin:miter;stroke-miterlimit:4;stroke-dasharray:none;stroke-opacity:1"
         id="path13165" />
      <use
         transform="translate(100,180)"
         id="use14136"
         x="0"
         y="0"
         width="527.14288"
         height="510"
         xlink:href="#path13165" />
      <use
         transform="matrix(-1,0,0,1,684.65222,0)"
         id="use14138"
         x="0"
         y="0"
         width="527.14288"
         height="510"
         xlink:href="#path13165" />
      <use
         transform="matrix(-1,0,0,1,684.65222,0)"
         id="use14140"
         x="0"
         y="0"
         width="527.14288"
         height="510"
         xlink:href="#use14136" />
      <use
         transform="translate(200,0)"
         id="use14142"
         x="0"
         y="0"
         width="527.14288"
         height="510"
         xlink:href="#path13165" />
    </g>
  </g>
</svg>
